<?xml version="1.0" encoding="utf-8" ?>
<svg xmlns="http://www.w3.org/2000/svg" xmlns:xlink="http://www.w3.org/1999/xlink" width="28" height="26">
	<path fill="#05447C" transform="scale(0.0274693 0.0259365)" d="M488.978 220.493L512.447 266.207L533.535 223.466C544.325 227.842 540.037 260.336 538.819 269.344C536.57 285.972 529.779 318.969 531.85 335.057L531.539 427.465C531.062 428.427 530.984 428.383 531.61 429.25L531.756 545.446L531.496 741.267L563.793 690.608L581.789 665.713C604.528 636.355 636.865 600.187 665.467 576.548C663.461 568.531 663.972 559.913 664 551.716C664.881 540.532 667.14 529.83 670.174 519.052C670.723 518.594 680.235 495.171 684.206 490.25L685.288 492.058L700.121 536.383C700.782 538.38 701.661 542.527 703.004 544.015L751.928 511.96C752.687 510.056 752.433 507.747 752.435 505.795L752.523 493.633C752.87 481.713 755.251 469.419 758.623 458L760.446 451.986C761.022 450.342 761.422 448.879 762.411 447.405L764.245 445.75C765.782 445.72 767.164 445.607 768.603 446.248L769.75 446.745C770.422 446.946 771.085 447.02 771.768 447.248L772.503 447.498C773.895 447.902 775.096 448.655 776.503 448.998L777.75 449.245C778.515 449.605 779.186 450.166 780.003 450.498L783.125 451.125L786.75 453.245L787.75 453L798.853 459.434C799.65 459.832 799.354 459.616 800.048 460.137L801.75 463.745C801.665 464.872 801.92 465.694 802.248 466.751L802.386 467.185L799.63 486.979C809.793 480.744 824.113 476.488 835.723 473.958L836.607 474.228C838.688 474.813 841.166 473.723 843.312 473.5L844.597 474.25C844.155 480.626 843.913 487.365 844.255 493.75C844.549 499.229 848.197 509.573 845.255 514L845.75 515.755L838.072 518.189C766.368 534.196 693.501 591.742 646.652 648.007L638.764 657.057C637.075 658.887 634.449 661.1 633.461 663.334L589.006 722C582.895 731.053 576.655 740.35 571.528 749.999L536.35 810.635C531.829 818.82 531.734 816.717 531.739 826.611L531.736 987.833C531.727 994.276 532.505 1002.17 530.734 1008.38C525.075 1028.23 499.075 1027.04 493.726 1007.87C492.502 1003.49 493.046 997.751 493.039 993.194L493.029 870.688C493.033 861.611 495.319 822.196 491.927 816.453L453.415 749.533L416.021 694.462C407.686 683.297 399.179 672.027 389.576 661.917C384.652 666.32 378.751 671.051 372.863 674.034L372.448 674.237L369 675.255C368.415 675.548 367.926 675.919 367.312 676.198L365 677.255C363.755 678.082 365.311 677.502 363.819 677.999L361.392 678.755C360.513 678.996 359.75 679.027 359.048 679.659L358.748 680C356.984 675.36 358.763 653.714 358.745 647.769L364.694 647.622C366.142 647.525 367.291 647.923 368.727 647.986L369.044 647.087C371.827 646.857 375.071 647.432 377.882 647.644L346.382 614.706C307.329 577.084 263.353 545.869 212.641 526.067C212.281 525.503 212.059 525.195 211.492 524.812L211 524.5C207.383 521.553 197.483 522.313 195.245 519L195.864 516.25C196.433 514.532 198.041 494.848 197.637 492.375L198.245 487.5C198.928 486.476 198.745 486.191 198.745 485L198.248 484.375C198.975 483.461 198.745 483.13 198.745 482L199.245 481.25C199.285 480.399 199.32 479.843 198.995 479.031L199.498 477.497C202.074 476.474 203.657 478.136 206 478.623L206.75 478.745C207.205 478.897 207.615 479.166 208.07 479.318L210.125 479.998C211.027 480.151 210.988 480.177 211.75 480.745L214.002 481.498C215.93 481.504 217.007 482.806 218.625 483.375L220.5 484C221.277 484.411 221.908 484.9 222.75 485.28L223.992 484.543L224.055 483.863C224.914 482.524 224.707 481.097 224.508 479.587L223.75 475.5C223.637 473.977 223.043 472.101 223.16 470.672L223.245 470C222.477 469.224 222.682 468.81 222.5 467.75L222.245 466.25C222.233 465.262 222.801 464.174 223.625 463.625L224.5 463.245C226.08 462.239 227.614 461.732 229.227 460.856L237.5 456.623C238.098 456.177 237.843 456.274 238.53 456.1L239.25 455.245C240.626 455.046 241.569 454.543 242.719 453.776L245.498 451.998C246.707 451.483 247.496 450.718 248.625 450.125L249.5 449.745C251.291 448.778 252.974 447.487 254.749 446.598L258.5 444.745C259.496 444.157 259.393 444.249 260.5 444.245L263.877 451C264.277 451.876 264.361 452.636 264.69 453.515L265.125 454.998C265.364 455.589 265.86 456.328 265.877 457L267.184 460.161L267.542 460.738C271.802 467.998 272.507 494.19 272.452 502.57C272.398 510.892 269.55 510.259 277.041 514.82L293.383 524.746C303.05 530.843 312.705 537.147 321.611 544.317C324.823 535.881 327.051 527.076 329.86 518.501L335.944 500.085C337.061 496.747 338.68 492.988 339.046 489.506L339.75 487.791C355.997 507.376 362.711 548.99 360.39 573.467L359.996 576.87C395.194 605.059 434.934 654.014 460.861 689.878L493.431 741.392C492.319 733.789 492.879 725.697 492.916 718.013L493.04 547.147L492.94 429.203C492.44 421.382 492.931 413.217 492.933 405.357L492.927 358.708C492.923 351.066 493.365 343.064 492.575 335.469C495.605 328.115 490.622 298.923 489.302 290.897L484.495 261.75C482.709 249.596 480.607 230.928 488.978 220.493Z"/>
	<defs>
		<linearGradient id="gradient_0" gradientUnits="userSpaceOnUse" x1="365.68301" y1="415.53101" x2="655.05798" y2="148.811">
			<stop offset="0" stop-color="#00ABE9"/>
			<stop offset="1" stop-color="#0067F8"/>
		</linearGradient>
	</defs>
	<path fill="url(#gradient_0)" transform="scale(0.0274693 0.0259365)" d="M509.39 0L515.39 -0C527.1 8.73659 537.685 20.1014 547.688 30.754C630.569 119.015 675.233 245.227 648.322 365.049C634.238 427.76 605.972 478.444 559.159 521.563L542.454 536.91C539.923 539.173 537.388 541.776 534.629 543.743L531.99 545.446L531.61 429.25C530.984 428.383 531.062 428.427 530.943 427.465L531.804 335.057C529.779 318.969 536.57 285.972 538.819 269.344C540.037 260.336 544.325 227.842 533.535 223.466L512.447 266.207L488.978 220.493C480.607 230.928 482.709 249.596 484.495 261.75L489.302 290.897C490.622 298.923 495.605 328.115 491.936 335.469C493.365 343.064 492.923 351.066 492.927 358.708L492.933 405.357C492.931 413.217 492.44 421.382 492.991 429.203L493.08 547.147C478.006 532.465 461.251 519.784 446.399 504.597C412.31 469.738 388.803 420.015 377.668 373.047L372.419 346.851C351.597 218.266 410.259 82.332 509.39 0ZM488.978 220.493L512.447 266.207L533.535 223.466C553.624 170.811 542.274 132.087 511.852 84.9079L496.093 112.346C476.755 151.37 475.616 180.899 488.978 220.493ZM531.804 335.057L530.827 427.465L531.324 427.61C556.302 405.734 579.056 381.339 587.964 348.328C594.526 324.008 591.145 297.739 602.105 274.451C600.039 274.124 597.232 275.109 595.233 275.692C559.068 286.227 547.937 305.755 531.804 335.057ZM492.991 429.203C492.44 421.382 492.931 413.217 492.933 405.357L492.927 358.708C492.923 351.066 493.365 343.064 491.779 335.469L491.296 334.648C475.432 307.079 463.958 286.363 429.5 276.507L420.808 274.077C432.477 296.967 429.756 307.82 432.693 329.812C437.372 364.86 454.06 389.399 478.305 414.026C483.128 418.925 488.759 423.766 492.991 429.203Z"/>
	<defs>
		<linearGradient id="gradient_1" gradientUnits="userSpaceOnUse" x1="1059.83" y1="463.92499" x2="533.51001" y2="586.87598">
			<stop offset="0" stop-color="#0050AF"/>
			<stop offset="1" stop-color="#5BECFF"/>
		</linearGradient>
	</defs>
	<path fill="url(#gradient_1)" transform="scale(0.0274693 0.0259365)" d="M904.583 313.348C942.241 304.605 983.89 300.532 1022.58 302.257L1022.46 302.768C1021.13 308.568 1021.67 314.972 1021.23 320.905L1017.45 356.311C1017.27 357.67 1016.9 363.016 1016.12 363.891C1013.53 385.627 1004.63 420.745 997.533 441.635L988.228 465.541C946.302 571.786 865.917 663.947 761.483 712.221C757.804 713.921 752.553 717.043 748.613 717.753C721.891 732.728 656.868 746.371 628 748.649C613.124 749.823 586.339 750.611 571.528 750.018C576.655 740.35 582.895 731.053 589.006 722L633.461 663.334C634.449 661.1 637.075 658.887 638.764 657.057L646.652 648.007C693.501 591.742 766.368 534.196 838.072 518.189L845.75 515.755L845.255 514C848.197 509.573 844.549 499.229 844.255 493.75C843.913 487.365 844.155 480.626 844.597 474.25L843.312 473.5C841.166 473.723 838.688 474.813 836.607 474.228L835.723 473.958C824.113 476.488 809.793 480.744 799.63 486.979L802.386 467.185L802.248 466.751C801.92 465.694 801.665 464.872 801.75 463.745L800.048 460.137C799.354 459.616 799.65 459.832 798.853 459.434L787.75 453L786.75 453.245L783.125 451.125L780.003 450.498C779.186 450.166 778.515 449.605 777.75 449.245L776.503 448.998C775.096 448.655 773.895 447.902 772.503 447.498L771.768 447.248C771.085 447.02 770.422 446.946 769.75 446.745L768.603 446.248C767.164 445.607 765.782 445.72 764.245 445.75L762.411 447.405C761.422 448.879 761.022 450.342 760.446 451.986L758.623 458C755.251 469.419 752.87 481.713 752.523 493.633L752.435 505.795C752.433 507.747 752.687 510.056 752.295 511.96L703.004 544.015C701.661 542.527 700.782 538.38 700.121 536.383L685.288 492.058L684.206 490.25C680.235 495.171 670.723 518.594 670.174 519.052C667.14 529.83 664.881 540.532 663.993 551.716C663.972 559.913 663.461 568.531 665.467 576.548C636.865 600.187 604.528 636.355 581.789 665.713L563.793 690.608L563.078 687.752C562.688 685.697 563.277 683.08 563.447 681L565.041 664.018C570.133 620.793 580.143 583.539 599.396 543.902C603.058 536.364 606.496 527.837 611.259 520.971C611.495 516.846 630.507 489.143 633.369 485.578L633.388 485.518C641.029 474.08 650.078 463.733 659.217 453.497C720.434 384.931 813.995 331.951 904.583 313.348ZM838.072 518.189C766.368 534.196 693.501 591.742 646.652 648.007L662.361 646.567C680.458 645.729 697.558 647.666 715.293 651.223L715.354 651.325C746.161 653.744 751.986 656.782 784.388 645.322L754.95 614.141L774.096 604.995C799.013 592.473 819.705 574.513 839.822 555.48C850.919 544.98 871.588 521.108 885.882 515.946L855.261 515.729C849.317 515.974 843.894 517.148 838.072 518.189ZM802.386 467.185L799.63 486.979C809.793 480.744 824.113 476.488 835.723 473.958C883.071 463.383 922.119 469.371 965.34 435.433C972.568 429.758 978.263 422.762 985.091 416.672C972.046 422.266 956.577 424.337 942.5 425.623L879.124 429.576C878.573 426.278 879.198 422.073 879.303 418.648L881.468 386C882.928 367.942 885.37 350.851 891.755 333.819C850.773 362.759 827.614 389.151 810.25 438.581C806.941 448 804.974 457.585 802.386 467.185Z"/>
	<defs>
		<linearGradient id="gradient_2" gradientUnits="userSpaceOnUse" x1="636.651" y1="655.56598" x2="662.26801" y2="662.979">
			<stop offset="0" stop-color="#004489"/>
			<stop offset="1" stop-color="#0060B6"/>
		</linearGradient>
	</defs>
	<path fill="url(#gradient_2)" transform="scale(0.0274693 0.0259365)" d="M646.652 648.007L662.361 646.567C680.458 645.729 697.558 647.666 715.293 651.223L715.354 651.325L714.928 651.958C713.741 651.922 711.317 651.457 710.25 651L707.302 650.709C706.161 650.61 705.301 650.509 704.25 650L701.729 649.709C700.546 649.619 700.02 649.68 699 649L695 648.5C693.197 648.628 691.955 648.731 690.25 648L686.75 648.245C684.598 646.962 666.724 646.018 664.5 647.5L661.856 651.608C661.708 652.339 661.728 653.01 661.745 653.75L660.745 655.75C660.745 657.342 660.175 662.32 659.245 663.25L659.247 664.625C658.916 665.947 659.414 666.91 658.75 668.255L659.245 669C659.245 670.329 659.687 675.22 659.245 676.25C658.756 677.389 657.659 676.379 658.75 678L659.922 678.158C660.528 678.535 661.096 678.733 661.75 679L664.664 679.867C666.248 680.184 664.026 679.713 666 680.5L670.5 681.5C671.958 681.814 674.344 681.729 675.5 682.5L676.359 682.431C677.768 682.327 679.311 682.207 680.5 683L680.987 682.942C686.941 682.281 692.277 683.012 698.25 681C699.668 680.522 702.799 679.337 704.06 679.967C679.06 688.373 653.108 680.426 633.461 663.334C634.449 661.1 637.075 658.887 638.764 657.057L646.652 648.007Z"/>
	<defs>
		<linearGradient id="gradient_3" gradientUnits="userSpaceOnUse" x1="-43.931198" y1="426.117" x2="498.233" y2="623.17798">
			<stop offset="0" stop-color="#0066C0"/>
			<stop offset="1" stop-color="#61E6FF"/>
		</linearGradient>
	</defs>
	<path fill="url(#gradient_3)" transform="scale(0.0274693 0.0259365)" d="M29.8425 449.422C18.3809 415.253 9.87978 380.375 5.02988 344.64L2.18973 321.814C1.64354 315.323 1.69321 308.887 0.775284 302.414L36.4622 302.403C40.123 302.544 43.6504 303.34 47.2491 303.535L63.5 304.237C91.5614 306.374 121.024 311.918 147.566 320.967C201.75 335.027 267.253 366.624 310.962 403.173C390.314 463.746 445.051 554.91 458.322 654.071L460.326 673.543C460.793 678.973 461.377 684.43 460.861 689.878C434.934 654.014 395.194 605.059 359.996 576.87L360.39 573.467C362.711 548.99 355.997 507.376 339.75 487.791L339.046 489.506C338.68 492.988 337.061 496.747 335.944 500.085L329.86 518.501C327.051 527.076 324.823 535.881 321.611 544.317C312.705 537.147 303.05 530.843 293.383 524.746L277.041 514.82C269.55 510.259 272.398 510.892 272.452 502.57C272.507 494.19 271.802 467.998 267.542 460.738L267.184 460.161L265.877 457C265.86 456.328 265.364 455.589 265.125 454.998L264.69 453.515C264.361 452.636 264.277 451.876 263.877 451L260.5 444.245C259.393 444.249 259.496 444.157 258.5 444.745L254.749 446.598C252.974 447.487 251.291 448.778 249.5 449.745L248.625 450.125C247.496 450.718 246.707 451.483 245.498 451.998L242.719 453.776C241.569 454.543 240.626 455.046 239.25 455.245L238.53 456.1C237.843 456.274 238.098 456.177 237.5 456.623L229.227 460.856C227.614 461.732 226.08 462.239 224.5 463.245L223.625 463.625C222.801 464.174 222.233 465.262 222.245 466.25L222.5 467.75C222.682 468.81 222.477 469.224 223.245 470L223.16 470.672C223.043 472.101 223.637 473.977 223.75 475.5L224.508 479.587C224.707 481.097 224.914 482.524 224.055 483.863L223.992 484.543L222.75 485.28C221.908 484.9 221.277 484.411 220.5 484L218.625 483.375C217.007 482.806 215.93 481.504 214.002 481.498L211.75 480.745C210.988 480.177 211.027 480.151 210.125 479.998L208.07 479.318C207.615 479.166 207.205 478.897 206.75 478.745L206 478.623C203.657 478.136 202.074 476.474 199.498 477.497L198.995 479.031C199.32 479.843 199.285 480.399 199.245 481.25L198.745 482C198.745 483.13 198.975 483.461 198.248 484.375L198.745 485C198.745 486.191 198.928 486.476 198.245 487.5L197.637 492.375C198.041 494.848 196.433 514.532 195.864 516.25L195.245 519C197.483 522.313 207.383 521.553 211 524.5L211.492 524.812C212.059 525.195 212.281 525.503 212.641 526.067C263.353 545.869 307.329 577.084 346.382 614.706L377.882 647.644C375.071 647.432 371.827 646.857 369.044 647.087L368.727 647.986C367.291 647.923 366.142 647.525 364.694 647.622L358.745 647.769C358.763 653.714 356.984 675.36 358.748 680L359.048 679.659C359.75 679.027 360.513 678.996 361.392 678.755L363.819 677.999C365.311 677.502 363.755 678.082 365 677.255L367.312 676.198C367.926 675.919 368.415 675.548 369 675.255L372.448 674.237L372.863 674.034C378.751 671.051 384.652 666.32 389.576 661.917C399.179 672.027 407.686 683.297 416.021 694.462L453.415 749.533L417.36 749.119C350.042 748.802 260.797 721.429 208.027 681.736L207.711 681.651C203.2 679.241 198.792 675.684 194.658 672.625L171.6 654.715C107.817 601.941 55.357 528.67 29.8425 449.422ZM345.634 646.536C353.277 646.457 361.47 645.962 369.044 647.087C371.827 646.857 375.071 647.432 377.882 647.644L346.382 614.706C307.329 577.084 263.353 545.869 212.641 526.067C200.57 522.151 189.124 518.755 176.545 516.654L137.981 515.741C149.228 519.387 175.199 547.967 184.888 556.816C215.557 584.829 230.458 596.294 268.929 614.035L248.282 636.847C239.01 646.883 235.573 645.428 257.08 651.113C290.454 659.935 316.106 645.344 345.634 646.536ZM179.822 471.878C191.263 472.844 203.002 475.995 213.715 480.071C216.922 481.291 220.801 483.782 223.992 484.543L224.055 483.863L217.709 451.847C205.385 412.854 185.341 376.327 153.75 349.581C146.784 343.684 138.866 338.931 131.483 333.589C141.526 359.429 145.774 400.567 146.267 428.812L89.4236 426.371C72.2299 425.085 54.9807 422.979 38.6818 417.062C70.5956 448.736 102.775 464.23 148.666 468.275L166 470.001C169.954 470.338 176.256 470.143 179.822 471.878Z"/>
</svg>
